<?xml version="1.0" encoding="UTF-8"?>
<svg width="250px" height="250px" viewBox="0 0 250 250" version="1.1" xmlns="http://www.w3.org/2000/svg" xmlns:xlink="http://www.w3.org/1999/xlink">
    <!-- Generator: Sketch 53.2 (72643) - https://sketchapp.com -->
    <title>Logo</title>
    <desc>Created with Sketch.</desc>
    <g id="Logo" stroke="none" stroke-width="1" fill="none" fill-rule="evenodd">
        <g id="logo" transform="translate(3.000000, 9.000000)">
            <g>
                <g id="globe-thin" transform="translate(65.429630, 54.828794)" fill="#ED372A" fill-rule="nonzero">
                    <path d="M70.3592593,136.622568 C77.5278791,136.622568 85.2203595,130.717737 91.3688296,118.468645 C94.4017072,112.453956 96.8555809,105.203372 98.5925926,97.07393 L42.1259259,97.07393 C43.835366,105.175908 46.3168113,112.426492 49.3496889,118.468645 C55.498159,130.717737 63.1906395,136.622568 70.3592593,136.622568 Z M41.2592394,92.5797665 L99.4592791,92.5797665 C100.646472,85.6980788 101.281481,78.2933828 101.281481,70.5583658 C101.281481,62.8233487 100.646472,55.4186527 99.4592791,48.536965 L41.2592394,48.536965 C40.072047,55.4186527 39.437037,62.8233487 39.437037,70.5583658 C39.437037,78.2933828 40.072047,85.6980788 41.2592394,92.5797665 Z M42.1259259,44.0428016 L98.5925926,44.0428016 C96.8831525,35.9133593 94.4017072,28.6902399 91.3688296,22.6480869 C85.2203595,10.3989948 77.5278791,4.49416342 70.3592593,4.49416342 C63.1906395,4.49416342 55.498159,10.3989948 49.3496889,22.6480869 C46.3168113,28.6627756 43.8629376,35.9133593 42.1259259,44.0428016 Z M103.97037,48.536965 C105.087713,55.4737062 105.714515,62.8784022 105.714515,70.5583658 C105.714515,78.2383293 105.114965,85.6430253 103.97037,92.5797665 L132.503478,92.5797665 C134.901677,85.6980788 136.237037,78.2933828 136.237037,70.5583658 C136.237037,62.8233487 134.928929,55.4186527 132.503478,48.536965 L103.97037,48.536965 Z M130.859259,44.0428016 C122.450564,25.0991726 105.19061,10.8164941 84.2518519,6.29182879 C92.6882075,13.5967102 99.3819716,27.1707061 102.839494,44.0428016 L130.859259,44.0428016 Z M37.8790241,44.0428016 C41.3365469,27.1979632 48.0579712,13.5967102 56.4666667,6.29182879 C35.5279086,10.8164941 18.2679547,25.0991726 9.85925926,44.0428016 L37.8790241,44.0428016 Z M8.21504004,48.536965 C5.78958959,55.4186527 4.48148148,62.8233487 4.48148148,70.5583658 C4.48148148,78.2933828 5.78958959,85.6980788 8.21504004,92.5797665 L36.7481481,92.5797665 C35.6308058,85.6430253 35.004004,78.2383293 35.004004,70.5583658 C35.004004,62.8784022 35.6035536,55.4737062 36.7481481,48.536965 L8.21504004,48.536965 Z M84.2518519,134.824903 C105.19061,130.300237 122.450564,116.017559 130.859259,97.07393 L102.839494,97.07393 C99.3819716,113.918768 92.6605473,127.520021 84.2518519,134.824903 Z M56.4666667,134.824903 C48.0353148,127.520021 41.3455208,113.946025 37.8900488,97.07393 L9.85925926,97.07393 C18.2629674,116.017559 35.512684,130.300237 56.4666667,134.824903 Z M70.3592593,141.116732 C31.5009134,141.116732 4.75877489e-15,109.526675 0,70.5583658 C-4.75877489e-15,31.5900564 31.5009134,7.1583623e-15 70.3592593,0 C109.217605,2.38612077e-15 140.718519,31.5900564 140.718519,70.5583658 C140.718519,109.526675 109.217605,141.116732 70.3592593,141.116732 Z" id="Shape"></path>
                </g>
                <g id="image-1" transform="translate(206.148148, 188.754864)" stroke="#ED372A" stroke-linejoin="bevel" stroke-width="2.5">
                    <polyline id="Path" points="35.8518519 31.459144 35.8518519 10.487482 17.9263315 0 0 10.487482 0 31.459144"></polyline>
                    <polyline id="Path" points="35.8518519 31.459144 17.926737 42.2451362 0 31.459144"></polyline>
                    <polygon id="Path" points="0 10.7859922 17.9253582 21.2727588 17.9259259 42.2451362 0.000616432078 31.7583696"></polygon>
                    <polygon id="Path" points="17.9265748 21.2727588 35.8518519 10.7859922 35.851203 31.7583696 17.9259259 42.2451362"></polygon>
                    <polygon id="Path" points="0 10.7859837 17.9259665 0 35.8518519 10.7859837 17.9259665 21.5719844"></polygon>
                </g>
                <g id="image-1" transform="translate(145.200000, 0.000000)" stroke="#ED372A" stroke-linejoin="bevel" stroke-width="2.5">
                    <polyline id="Path" points="35.8518519 31.459144 35.8518519 10.487482 17.9263315 0 0 10.487482 0 31.459144"></polyline>
                    <polyline id="Path" points="35.8518519 31.459144 17.926737 42.2451362 0 31.459144"></polyline>
                    <polygon id="Path" points="0 10.7859922 17.9253582 21.2727588 17.9259259 42.2451362 0.000616432078 31.7583696"></polygon>
                    <polygon id="Path" points="17.9265748 21.2727588 35.8518519 10.7859922 35.851203 31.7583696 17.9259259 42.2451362"></polygon>
                    <polygon id="Path" points="0 10.7859837 17.9259665 0 35.8518519 10.7859837 17.9259665 21.5719844"></polygon>
                </g>
                <g id="image-1" transform="translate(0.000000, 104.264591)" stroke="#ED372A" stroke-linejoin="bevel" stroke-width="2.5">
                    <polyline id="Path" points="35.8518519 31.459144 35.8518519 10.487482 17.9263315 0 0 10.487482 0 31.459144"></polyline>
                    <polyline id="Path" points="35.8518519 31.459144 17.926737 42.2451362 0 31.459144"></polyline>
                    <polygon id="Path" points="0 10.7859922 17.9253582 21.2727588 17.9259259 42.2451362 0.000616432078 31.7583696"></polygon>
                    <polygon id="Path" points="17.9265748 21.2727588 35.8518519 10.7859922 35.851203 31.7583696 17.9259259 42.2451362"></polygon>
                    <polygon id="Path" points="0 10.7859837 17.9259665 0 35.8518519 10.7859837 17.9259665 21.5719844"></polygon>
                </g>
            </g>
        </g>
    </g>
</svg>